<?xml version="1.0" standalone="no"?><svg xmlns="http://www.w3.org/2000/svg" viewBox="0 0 1440 320"><path fill="#306998" fill-opacity="1" d="M0,64L20,85.3C40,107,80,149,120,170.7C160,192,200,192,240,165.3C280,139,320,85,360,74.7C400,64,440,96,480,144C520,192,560,256,600,250.7C640,245,680,171,720,138.7C760,107,800,117,840,154.7C880,192,920,256,960,245.3C1000,235,1040,149,1080,101.3C1120,53,1160,43,1200,48C1240,53,1280,75,1320,117.3C1360,160,1400,224,1420,256L1440,288L1440,320L1420,320C1400,320,1360,320,1320,320C1280,320,1240,320,1200,320C1160,320,1120,320,1080,320C1040,320,1000,320,960,320C920,320,880,320,840,320C800,320,760,320,720,320C680,320,640,320,600,320C560,320,520,320,480,320C440,320,400,320,360,320C320,320,280,320,240,320C200,320,160,320,120,320C80,320,40,320,20,320L0,320Z"></path></svg>