<?xml version="1.0" standalone="no"?><svg xmlns="http://www.w3.org/2000/svg" viewBox="0 0 1440 320"><path fill="#306998" fill-opacity="1" d="M0,224L8.3,234.7C16.6,245,33,267,50,234.7C66.2,203,83,117,99,90.7C115.9,64,132,96,149,122.7C165.5,149,182,171,199,192C215.2,213,232,235,248,224C264.8,213,281,171,298,149.3C314.5,128,331,128,348,144C364.1,160,381,192,397,192C413.8,192,430,160,447,144C463.4,128,480,128,497,149.3C513.1,171,530,213,546,208C562.8,203,579,149,596,133.3C612.4,117,629,139,646,176C662.1,213,679,267,695,272C711.7,277,728,235,745,224C761.4,213,778,235,794,218.7C811,203,828,149,844,117.3C860.7,85,877,75,894,64C910.3,53,927,43,943,53.3C960,64,977,96,993,122.7C1009.7,149,1026,171,1043,181.3C1059.3,192,1076,192,1092,181.3C1109,171,1126,149,1142,117.3C1158.6,85,1175,43,1192,21.3C1208.3,0,1225,0,1241,42.7C1257.9,85,1274,171,1291,197.3C1307.6,224,1324,192,1341,170.7C1357.2,149,1374,139,1390,149.3C1406.9,160,1423,192,1432,208L1440,224L1440,0L1431.7,0C1423.4,0,1407,0,1390,0C1373.8,0,1357,0,1341,0C1324.1,0,1308,0,1291,0C1274.5,0,1258,0,1241,0C1224.8,0,1208,0,1192,0C1175.2,0,1159,0,1142,0C1125.5,0,1109,0,1092,0C1075.9,0,1059,0,1043,0C1026.2,0,1010,0,993,0C976.6,0,960,0,943,0C926.9,0,910,0,894,0C877.2,0,861,0,844,0C827.6,0,811,0,794,0C777.9,0,761,0,745,0C728.3,0,712,0,695,0C678.6,0,662,0,646,0C629,0,612,0,596,0C579.3,0,563,0,546,0C529.7,0,513,0,497,0C480,0,463,0,447,0C430.3,0,414,0,397,0C380.7,0,364,0,348,0C331,0,314,0,298,0C281.4,0,265,0,248,0C231.7,0,215,0,199,0C182.1,0,166,0,149,0C132.4,0,116,0,99,0C82.8,0,66,0,50,0C33.1,0,17,0,8,0L0,0Z"></path></svg>